<svg width="96" height="24" viewBox="0 0 96 24" fill="none" xmlns="http://www.w3.org/2000/svg">
<path d="M95.2089 21.9957L0.22749 23.8739L0.0890988 16.8753C-0.0746833 8.59262 6.50696 1.74543 14.7896 1.58165L94.774 2.72989e-05L95.2089 21.9957Z" fill="#8F2909"/>
<path d="M39.4367 6.20689L35.7827 15.9369H33.9347L30.2667 6.20689H31.9747L34.8587 14.2989L37.7567 6.20689H39.4367ZM40.2394 12.0449C40.2394 11.2702 40.3981 10.5842 40.7154 9.98689C41.0421 9.38956 41.4808 8.92756 42.0314 8.60089C42.5914 8.26489 43.2074 8.09689 43.8794 8.09689C44.4861 8.09689 45.0134 8.21822 45.4614 8.46089C45.9188 8.69422 46.2828 8.98822 46.5534 9.34289V8.22289H48.1634V15.9369H46.5534V14.7889C46.2828 15.1529 45.9141 15.4562 45.4474 15.6989C44.9808 15.9416 44.4488 16.0629 43.8514 16.0629C43.1888 16.0629 42.5821 15.8949 42.0314 15.5589C41.4808 15.2136 41.0421 14.7376 40.7154 14.1309C40.3981 13.5149 40.2394 12.8196 40.2394 12.0449ZM46.5534 12.0729C46.5534 11.5409 46.4414 11.0789 46.2174 10.6869C46.0028 10.2949 45.7181 9.99622 45.3634 9.79089C45.0088 9.58556 44.6261 9.48289 44.2154 9.48289C43.8048 9.48289 43.4221 9.58556 43.0674 9.79089C42.7128 9.98689 42.4234 10.2809 42.1994 10.6729C41.9848 11.0556 41.8774 11.5129 41.8774 12.0449C41.8774 12.5769 41.9848 13.0436 42.1994 13.4449C42.4234 13.8462 42.7128 14.1542 43.0674 14.3689C43.4314 14.5742 43.8141 14.6769 44.2154 14.6769C44.6261 14.6769 45.0088 14.5742 45.3634 14.3689C45.7181 14.1636 46.0028 13.8649 46.2174 13.4729C46.4414 13.0716 46.5534 12.6049 46.5534 12.0729ZM49.7277 12.0729C49.7277 11.2796 49.8864 10.5842 50.2037 9.98689C50.5304 9.38022 50.9784 8.91356 51.5477 8.58689C52.1171 8.26022 52.7704 8.09689 53.5077 8.09689C54.4411 8.09689 55.2111 8.32089 55.8177 8.76889C56.4337 9.20756 56.8491 9.83756 57.0637 10.6589H55.3417C55.2017 10.2762 54.9777 9.97756 54.6697 9.76289C54.3617 9.54822 53.9744 9.44089 53.5077 9.44089C52.8544 9.44089 52.3317 9.67422 51.9397 10.1409C51.5571 10.5982 51.3657 11.2422 51.3657 12.0729C51.3657 12.9036 51.5571 13.5522 51.9397 14.0189C52.3317 14.4856 52.8544 14.7189 53.5077 14.7189C54.4317 14.7189 55.0431 14.3129 55.3417 13.5009H57.0637C56.8397 14.2849 56.4197 14.9102 55.8037 15.3769C55.1877 15.8342 54.4224 16.0629 53.5077 16.0629C52.7704 16.0629 52.1171 15.8996 51.5477 15.5729C50.9784 15.2369 50.5304 14.7702 50.2037 14.1729C49.8864 13.5662 49.7277 12.8662 49.7277 12.0729ZM58.1222 12.0449C58.1222 11.2702 58.2809 10.5842 58.5982 9.98689C58.9249 9.38956 59.3636 8.92756 59.9142 8.60089C60.4742 8.26489 61.0902 8.09689 61.7622 8.09689C62.3689 8.09689 62.8962 8.21822 63.3442 8.46089C63.8016 8.69422 64.1656 8.98822 64.4362 9.34289V8.22289H66.0462V15.9369H64.4362V14.7889C64.1656 15.1529 63.7969 15.4562 63.3302 15.6989C62.8636 15.9416 62.3316 16.0629 61.7342 16.0629C61.0716 16.0629 60.4649 15.8949 59.9142 15.5589C59.3636 15.2136 58.9249 14.7376 58.5982 14.1309C58.2809 13.5149 58.1222 12.8196 58.1222 12.0449ZM64.4362 12.0729C64.4362 11.5409 64.3242 11.0789 64.1002 10.6869C63.8856 10.2949 63.6009 9.99622 63.2462 9.79089C62.8916 9.58556 62.5089 9.48289 62.0982 9.48289C61.6876 9.48289 61.3049 9.58556 60.9502 9.79089C60.5956 9.98689 60.3062 10.2809 60.0822 10.6729C59.8676 11.0556 59.7602 11.5129 59.7602 12.0449C59.7602 12.5769 59.8676 13.0436 60.0822 13.4449C60.3062 13.8462 60.5956 14.1542 60.9502 14.3689C61.3142 14.5742 61.6969 14.6769 62.0982 14.6769C62.5089 14.6769 62.8916 14.5742 63.2462 14.3689C63.6009 14.1636 63.8856 13.8649 64.1002 13.4729C64.3242 13.0716 64.4362 12.6049 64.4362 12.0729ZM72.0345 8.09689C72.6412 8.09689 73.1825 8.22289 73.6585 8.47489C74.1439 8.72689 74.5219 9.10022 74.7925 9.59489C75.0632 10.0896 75.1985 10.6869 75.1985 11.3869V15.9369H73.6165V11.6249C73.6165 10.9342 73.4439 10.4069 73.0985 10.0429C72.7532 9.66956 72.2819 9.48289 71.6845 9.48289C71.0872 9.48289 70.6112 9.66956 70.2565 10.0429C69.9112 10.4069 69.7385 10.9342 69.7385 11.6249V15.9369H68.1425V8.22289H69.7385V9.10489C69.9999 8.78756 70.3312 8.54022 70.7325 8.36289C71.1432 8.18556 71.5772 8.09689 72.0345 8.09689ZM79.0963 9.52489V13.7949C79.0963 14.0842 79.1617 14.2942 79.2923 14.4249C79.4323 14.5462 79.6657 14.6069 79.9923 14.6069H80.9723V15.9369H79.7123C78.9937 15.9369 78.443 15.7689 78.0603 15.4329C77.6777 15.0969 77.4863 14.5509 77.4863 13.7949V9.52489H76.5763V8.22289H77.4863V6.30489H79.0963V8.22289H80.9723V9.52489H79.0963Z" fill="white"/>
</svg>
